<?xml version="1.0" encoding="utf-8"?><svg xmlns="http://www.w3.org/2000/svg" xmlns:xlink="http://www.w3.org/1999/xlink"><symbol id="arrleft" viewBox="0 0 129 129"><path d="M88.6 121.3c.8.8 1.8 1.2 2.9 1.2s2.1-.4 2.9-1.2c1.6-1.6 1.6-4.2 0-5.8l-51-51 51-51c1.6-1.6 1.6-4.2 0-5.8s-4.2-1.6-5.8 0l-54 53.9c-1.6 1.6-1.6 4.2 0 5.8l54 53.9z"/></symbol><symbol id="arrright" viewBox="0 0 129 129"><path d="M40.4 121.3c-.8.8-1.8 1.2-2.9 1.2s-2.1-.4-2.9-1.2c-1.6-1.6-1.6-4.2 0-5.8l51-51-51-51c-1.6-1.6-1.6-4.2 0-5.8 1.6-1.6 4.2-1.6 5.8 0l53.9 53.9c1.6 1.6 1.6 4.2 0 5.8l-53.9 53.9z"/></symbol><symbol id="basket" viewBox="0 0 37 37"><path d="M12 27.5a3 3 0 1 0 0 6 3 3 0 0 0 0-6zm1 4h-2v-2h2v2zm0-14h21v-2H13v2zm0-9v2h24v-2H13zm15 19a3 3 0 1 0 0 6 3 3 0 0 0 0-6zm1 4h-2v-2h2v2zm-19-11L6.024 3.502 0 3.5v2h4.471L8 20.5a5 5 0 0 0 5 5h19v-2H13a3 3 0 0 1-3-3z"/></symbol><symbol viewBox="0 0 70 70" id="check" xmlns="http://www.w3.org/2000/svg"><path d="M26.474 70a6.972 6.972 0 0 1-5.557-2.764L3.049 43.639a6.971 6.971 0 0 1 11.116-8.414l11.752 15.518L55.474 3.285a6.977 6.977 0 0 1 9.604-2.232 6.969 6.969 0 0 1 2.23 9.602l-34.916 56.06A6.967 6.967 0 0 1 26.474 70z"/></symbol><symbol id="check" viewBox="0 0 26 26"><path d="M.3 14c-.2-.2-.3-.5-.3-.7s.1-.5.3-.7l1.4-1.4c.4-.4 1-.4 1.4 0l.1.1 5.5 5.9c.2.2.5.2.7 0L22.8 3.3h.1c.4-.4 1-.4 1.4 0l1.4 1.4c.4.4.4 1 0 1.4l-16 16.6c-.2.2-.4.3-.7.3-.3 0-.5-.1-.7-.3L.5 14.3.3 14z"/></symbol><symbol id="close" viewBox="0 0 22.88 22.88"><path d="M.324 1.909a1.14 1.14 0 0 1 0-1.587 1.14 1.14 0 0 1 1.587 0l9.523 9.539L20.973.322a1.12 1.12 0 0 1 1.571 0 1.112 1.112 0 0 1 0 1.587l-9.523 9.524 9.523 9.539a1.112 1.112 0 0 1 0 1.587 1.12 1.12 0 0 1-1.571 0l-9.539-9.539-9.523 9.539a1.14 1.14 0 0 1-1.587 0c-.429-.444-.429-1.159 0-1.587l9.523-9.539L.324 1.909z"/></symbol><symbol id="currency" viewBox="0 0 442.003 442.003"><path d="M337.897 189.476c-.01-.082-.016-.165-.028-.246a9.855 9.855 0 0 0-.244-1.205l-.004-.013a9.962 9.962 0 0 0-.379-1.102c-.042-.104-.088-.204-.133-.306a9.948 9.948 0 0 0-.385-.774c-.061-.111-.12-.222-.186-.331-.035-.059-.063-.12-.1-.179-.148-.235-.31-.456-.474-.675-.031-.041-.056-.084-.087-.124a9.722 9.722 0 0 0-.803-.91c-.053-.054-.111-.104-.166-.156a10.075 10.075 0 0 0-.767-.668c-.068-.053-.134-.106-.204-.157-.356-.264-.723-.51-1.106-.723L185.506 98.164l84.825-53.414 142.207 80.832-59.891 37.713c-4.674 2.942-6.077 9.117-3.134 13.79 2.942 4.674 9.116 6.077 13.79 3.134l74.026-46.613a9.996 9.996 0 0 0 4.669-8.688 9.996 9.996 0 0 0-5.056-8.468L275.009 24.404a10.001 10.001 0 0 0-10.27.231L160.783 90.096l-.064.04-51.947 32.711a4.4 4.4 0 0 0-.071.045L4.674 188.398a9.996 9.996 0 0 0-4.669 8.688 9.996 9.996 0 0 0 5.056 8.468L166.995 297.6a9.995 9.995 0 0 0 10.269-.231l74.026-46.614c4.674-2.942 6.077-9.117 3.134-13.79-2.941-4.674-9.117-6.078-13.79-3.134l-68.961 43.424-142.207-80.834 84.826-53.415 151.67 86.212V343.4a10 10 0 0 0 15.328 8.462l52.014-32.753a10 10 0 0 0 4.672-8.462v-120c0-.059-.01-.115-.012-.174a10.135 10.135 0 0 0-.067-.997zm-51.935 135.811V223.401a9.998 9.998 0 0 0-5.059-8.693l-147.411-83.791 32.813-20.663 142.206 80.833-12.451 7.84c-4.674 2.942-6.077 9.117-3.134 13.79a9.988 9.988 0 0 0 8.472 4.673 9.95 9.95 0 0 0 5.318-1.539l11.259-7.089v96.366l-32.013 20.159z"/><path d="M426.674 156.681l-74.026 46.613c-4.674 2.942-6.077 9.117-3.134 13.79a9.988 9.988 0 0 0 8.472 4.673 9.95 9.95 0 0 0 5.318-1.539l74.026-46.613c4.674-2.942 6.077-9.117 3.134-13.79-2.942-4.674-9.117-6.078-13.79-3.134zM240.633 273.83l-68.961 43.424-156.729-89.087c-4.798-2.728-10.906-1.052-13.635 3.752-2.729 4.801-1.05 10.906 3.752 13.635L166.994 337.6a9.995 9.995 0 0 0 10.269-.231l74.026-46.614c4.674-2.942 6.077-9.117 3.134-13.79-2.941-4.675-9.117-6.079-13.79-3.135zM426.674 196.681l-74.026 46.613c-4.674 2.942-6.077 9.117-3.134 13.79a9.988 9.988 0 0 0 8.472 4.673 9.95 9.95 0 0 0 5.318-1.539l74.026-46.613c4.674-2.942 6.077-9.117 3.134-13.79-2.942-4.675-9.117-6.078-13.79-3.134z"/><path d="M240.633 313.83l-68.961 43.424-156.729-89.087c-4.798-2.728-10.906-1.052-13.635 3.752-2.729 4.801-1.05 10.906 3.752 13.635L166.994 377.6a9.995 9.995 0 0 0 10.269-.231l74.026-46.614c4.674-2.942 6.077-9.117 3.134-13.79-2.941-4.676-9.117-6.079-13.79-3.135zM426.674 236.681l-74.026 46.613c-4.674 2.942-6.077 9.117-3.134 13.79a9.988 9.988 0 0 0 8.472 4.673 9.95 9.95 0 0 0 5.318-1.539l74.026-46.613c4.674-2.942 6.077-9.117 3.134-13.79-2.942-4.674-9.117-6.077-13.79-3.134z"/><path d="M240.633 353.83l-68.961 43.424-156.729-89.087c-4.798-2.728-10.906-1.052-13.635 3.752-2.729 4.801-1.05 10.906 3.752 13.635L166.994 417.6a9.995 9.995 0 0 0 10.269-.231l74.026-46.614c4.674-2.942 6.077-9.117 3.134-13.79-2.941-4.675-9.117-6.079-13.79-3.135z"/></symbol><symbol id="dollar" viewBox="0 0 484.184 484.184"><path d="M309.43 219.944c-19-10.5-39.2-18.5-59.2-26.8-11.6-4.8-22.7-10.4-32.5-18.2-19.3-15.4-15.6-40.4 7-50.3 6.4-2.8 13.1-3.7 19.9-4.1 26.2-1.4 51.1 3.4 74.8 14.8 11.8 5.7 15.7 3.9 19.7-8.4 4.2-13 7.7-26.2 11.6-39.3 2.6-8.8-.6-14.6-8.9-18.3-15.2-6.7-30.8-11.5-47.2-14.1-21.4-3.3-21.4-3.4-21.5-24.9-.1-30.3-.1-30.3-30.5-30.3-4.4 0-8.8-.1-13.2 0-14.2.4-16.6 2.9-17 17.2-.2 6.4 0 12.8-.1 19.3-.1 19-.2 18.7-18.4 25.3-44 16-71.2 46-74.1 94-2.6 42.5 19.6 71.2 54.5 92.1 21.5 12.9 45.3 20.5 68.1 30.6 8.9 3.9 17.4 8.4 24.8 14.6 21.9 18.1 17.9 48.2-8.1 59.6-13.9 6.1-28.6 7.6-43.7 5.7-23.3-2.9-45.6-9-66.6-19.9-12.3-6.4-15.9-4.7-20.1 8.6-3.6 11.5-6.8 23.1-10 34.7-4.3 15.6-2.7 19.3 12.2 26.6 19 9.2 39.3 13.9 60 17.2 16.2 2.6 16.7 3.3 16.9 20.1.1 7.6.1 15.3.2 22.9.1 9.6 4.7 15.2 14.6 15.4 11.2.2 22.5.2 33.7-.1 9.2-.2 13.9-5.2 13.9-14.5 0-10.4.5-20.9.1-31.3-.5-10.6 4.1-16 14.3-18.8 23.5-6.4 43.5-19 58.9-37.8 42.8-52 26.5-128.1-34.1-161.6z"/></symbol><symbol id="euro" viewBox="0 0 401.987 401.987"><path d="M345.176 382.016l-9.996-45.392c-.567-2.669-1.995-4.668-4.284-5.995-2.475-1.335-4.948-1.52-7.42-.568l-1.43.568-3.43.855c-1.525.376-3.285.808-5.283 1.283-1.999.476-4.326.948-6.995 1.427-2.655.476-5.476.907-8.419 1.287-2.949.373-6.132.712-9.561.999-3.43.281-6.852.425-10.281.425-24.174 0-45.922-6.517-65.239-19.555-19.32-13.042-33.548-30.696-42.683-52.961h110.486c2.098 0 4.001-.712 5.708-2.143 1.719-1.424 2.766-3.183 3.139-5.284l6.852-31.977c.574-2.847 0-5.42-1.708-7.706-1.903-2.286-4.288-3.43-7.139-3.43h-131.04c-.571-12.942-.571-22.934 0-29.978h139.325c5.144 0 8.186-2.472 9.137-7.421l6.852-32.548c.567-2.664-.089-5.136-1.999-7.422-1.707-2.284-4.086-3.431-7.132-3.431h-133.62c9.517-21.317 23.791-38.066 42.827-50.248 19.034-12.185 40.542-18.274 64.524-18.274.764-.38 3.569-.284 8.419.286 4.853.568 7.618.808 8.281.712.657-.094 3.142.193 7.42.855l6.427 1 4.996.998c1.431.288 2.525.522 3.285.715l1.143.284c2.472.765 4.75.525 6.852-.711 2.095-1.241 3.429-3.094 4.001-5.568l12.278-45.395c.568-2.475.28-4.759-.855-6.852-1.715-2.288-3.621-3.715-5.715-4.284C315.39 2.19 296.92 0 277.51 0c-42.641 0-80.751 12.185-114.347 36.545-33.595 24.362-56.77 56.532-69.523 96.501H65.663c-2.666 0-4.853.855-6.567 2.568-1.709 1.711-2.568 3.901-2.568 6.567v32.548c0 2.664.856 4.854 2.568 6.563 1.715 1.715 3.905 2.568 6.567 2.568h19.13c-.575 9.139-.666 19.126-.288 29.981H65.663c-2.474 0-4.615.903-6.423 2.711-1.807 1.807-2.712 3.949-2.712 6.42v32.264c0 2.478.905 4.613 2.712 6.427 1.809 1.808 3.949 2.704 6.423 2.704h27.124c11.991 42.064 34.643 75.52 67.952 100.357 33.311 24.846 72.235 37.261 116.771 37.261 3.62 0 7.282-.089 10.995-.287 3.72-.191 7.187-.479 10.424-.855 3.234-.377 6.424-.801 9.565-1.28 3.138-.479 5.995-.947 8.562-1.431 2.57-.472 4.997-.947 7.279-1.42 2.286-.482 4.332-.999 6.143-1.574 1.807-.564 3.323-.996 4.565-1.276 1.239-.287 2.238-.626 2.994-.999l1.431-.288c2.095-.76 3.713-2.142 4.853-4.144 1.143-1.987 1.423-4.132.855-6.415z"/></symbol><symbol id="facebook" viewBox="0 0 96.124 96.123"><path d="M72.089.02L59.624 0C45.62 0 36.57 9.285 36.57 23.656v10.907H24.037a1.96 1.96 0 0 0-1.96 1.961v15.803a1.96 1.96 0 0 0 1.96 1.96H36.57v39.876a1.96 1.96 0 0 0 1.96 1.96h16.352a1.96 1.96 0 0 0 1.96-1.96V54.287h14.654a1.96 1.96 0 0 0 1.96-1.96l.006-15.803a1.963 1.963 0 0 0-1.961-1.961H56.842v-9.246c0-4.444 1.059-6.7 6.848-6.7l8.397-.003a1.96 1.96 0 0 0 1.959-1.96V1.98A1.96 1.96 0 0 0 72.089.02z"/></symbol><symbol id="google" viewBox="0 0 491.858 491.858"><path d="M377.472 224.957H201.319v58.718H308.79c-16.032 51.048-63.714 88.077-120.055 88.077-69.492 0-125.823-56.335-125.823-125.824 0-69.492 56.333-125.823 125.823-125.823 34.994 0 66.645 14.289 89.452 37.346l42.622-46.328c-34.04-33.355-80.65-53.929-132.074-53.929C84.5 57.193 0 141.693 0 245.928s84.5 188.737 188.736 188.737c91.307 0 171.248-64.844 188.737-150.989v-58.718l-.001-.001zM491.858 224.857h-36.031v-36.031h-30.886v36.031H388.91v30.883h36.031v36.032h30.886V255.74h36.031z"/></symbol><symbol viewBox="0 0 57 21" id="icon-wezom" xmlns="http://www.w3.org/2000/svg"><path d="M31.2 1.1C30.5.4 29.5 0 28.5 0c-1 0-2 .4-2.7 1.2l-9.6 10.2L6.5 1.1C5-.4 2.6-.4 1.1 1.1c-1.5 1.6-1.5 4.1 0 5.6l12.3 13c.7.8 1.7 1.2 2.7 1.2 1 0 1.9-.4 2.7-1.2l9.6-10.2L38 19.7c.7.8 1.7 1.2 2.7 1.2 1 0 1.9-.4 2.7-1.2l12.3-13c1.5-1.6 1.5-4.1 0-5.6-1.5-1.6-3.9-1.6-5.4 0l-9.7 10.2-9.4-10.2z"/></symbol><symbol id="icon-youtube-play" viewBox="0 0 100 100"><path d="M37.9 36.6L62 50.1 37.8 63.4l.1-26.8zM3.2 54.9c.2 7.6.2 18.9 6.2 23.3 2.1 1.6 4.4 1.8 7.6 2 18.3 1.2 38.7 1.2 57.2.4 5.5-.2 12.9.2 16.8-2.7 6.6-4.9 6.2-22.8 5.9-33-.1-4.8-.5-13.5-2.1-17.5-2.1-5.3-4.8-7.4-11.7-7.8-18.3-1.1-38.7-1.1-57.2-.4-14.6.6-20.6-.4-22.2 16.9-.6 6.2-.7 12.6-.5 18.8z"/><path fill="#FFF" d="M37.9 36.6L62 50.1 37.8 63.4l.1-26.8z"/></symbol><symbol id="instagram" viewBox="0 0 438.536 438.536"><path d="M421.981 16.562C410.941 5.519 397.711 0 382.298 0H56.248C40.83 0 27.604 5.521 16.561 16.562 5.52 27.6.001 40.828.001 56.243V382.29c0 15.413 5.518 28.644 16.56 39.683 11.043 11.04 24.272 16.563 39.687 16.563h326.046c15.41 0 28.644-5.523 39.684-16.563 11.043-11.039 16.557-24.27 16.557-39.683V56.243c-.001-15.418-5.514-28.639-16.554-39.681zM157.462 158.025c17.224-16.652 37.924-24.982 62.097-24.982 24.36 0 45.153 8.33 62.381 24.982 17.228 16.655 25.837 36.785 25.837 60.386 0 23.598-8.609 43.729-25.837 60.379-17.228 16.659-38.014 24.988-62.381 24.988-24.172 0-44.87-8.336-62.097-24.988-17.228-16.652-25.841-36.781-25.841-60.379 0-23.601 8.613-43.73 25.841-60.386zm231.403 212.564c0 4.945-1.718 9.083-5.141 12.416-3.433 3.33-7.519 4.996-12.282 4.996h-305.2c-4.948 0-9.091-1.666-12.419-4.996-3.333-3.326-4.998-7.471-4.998-12.416V185.575H89.08c-3.805 11.993-5.708 24.462-5.708 37.402 0 36.553 13.322 67.715 39.969 93.511 26.65 25.786 58.721 38.685 96.217 38.685 24.744 0 47.583-5.903 68.527-17.703 20.937-11.807 37.486-27.839 49.676-48.112 12.183-20.272 18.274-42.4 18.274-66.38 0-12.94-1.91-25.406-5.715-37.402h38.547V370.59h-.002zm0-254.963c0 5.52-1.903 10.184-5.716 13.99-3.805 3.809-8.466 5.711-13.989 5.711h-49.676c-5.517 0-10.185-1.903-13.99-5.711-3.806-3.806-5.708-8.47-5.708-13.99V68.522c0-5.33 1.902-9.945 5.708-13.848 3.806-3.901 8.474-5.854 13.99-5.854h49.676c5.523 0 10.185 1.952 13.989 5.854 3.812 3.903 5.716 8.518 5.716 13.848v47.104z"/></symbol><symbol id="language" viewBox="0 0 512 512"><path d="M136 241c-8.276 0-15 6.724-15 15s6.724 15 15 15 15-6.724 15-15-6.724-15-15-15zM361 361c-8.276 0-15 6.724-15 15s6.724 15 15 15 15-6.724 15-15-6.724-15-15-15zM361 121c-8.276 0-15 6.724-15 15s6.724 15 15 15 15-6.724 15-15-6.724-15-15-15zM169.657 121H241V0c-28.098 12.268-54.496 61.894-71.343 121zM22.886 151C10.289 178.731 1.871 209.072 0 241h93.763c4.757-13.343 15.564-23.672 29.172-27.838 1.743-20.984 4.66-41.88 8.763-62.162H22.886zM162.285 151a507.34 507.34 0 0 0-9.405 63.349c11.843 4.819 21.044 14.561 25.356 26.651H241v-90h-78.715zM271 0v121h47.763c3.195-8.959 9.014-16.655 16.705-21.982C318.75 50.819 295.507 10.701 271 0zM390.621 271a536.676 536.676 0 0 1-6.183 66.769A44.967 44.967 0 0 1 403.237 361h85.877c12.598-27.731 21.015-58.072 22.886-90H390.621zM489.114 151h-85.877a44.98 44.98 0 0 1-18.799 23.231A536.295 536.295 0 0 1 390.621 241H512c-1.871-31.928-10.289-62.269-22.886-90zM355.138 180.407c-16.921-2.234-30.802-13.775-36.376-29.407H271v90h89.628c-.635-20.565-2.494-40.911-5.49-60.593zM271 271v90h47.763c5.574-15.632 19.455-27.173 36.376-29.407 2.996-19.682 4.854-40.029 5.49-60.593H271zM178.237 271c-4.312 12.09-13.513 21.832-25.357 26.651A507.156 507.156 0 0 0 162.284 361H241v-90h-62.763zM39.062 121h99.734c11.823-44.224 29.028-88.246 50.5-115.49C126.713 22.516 72.735 67.335 39.062 121zM122.935 298.838C109.327 294.672 98.52 284.343 93.763 271H0c1.871 31.928 10.289 62.269 22.886 90h108.813c-4.104-20.283-7.02-41.179-8.764-62.162zM403.238 391.001c-5.866 16.447-20.937 28.379-39.05 29.677-10.994 31.99-24.959 64.845-41.484 85.813 62.584-17.007 116.562-61.826 150.235-115.49h-69.701zM138.797 391H39.062c33.673 53.665 87.651 98.484 150.235 115.49-21.473-27.244-38.677-71.267-50.5-115.49zM169.657 391c16.847 59.106 43.245 108.732 71.343 121V391h-71.343zM318.763 391H271v121c24.507-10.701 47.75-50.819 64.468-99.018-7.691-5.327-13.51-13.023-16.705-21.982zM322.703 5.51c16.525 20.967 30.491 53.822 41.484 85.813 18.114 1.297 33.185 13.229 39.05 29.677h69.701C439.265 67.335 385.287 22.516 322.703 5.51z"/></symbol><symbol id="minus" viewBox="0 0 31.427 31.427"><path d="M1.111 16.832A1.117 1.117 0 0 1 0 15.706c0-.619.492-1.111 1.111-1.111H30.3c.619 0 1.127.492 1.127 1.111s-.508 1.127-1.127 1.127H1.111z"/></symbol><symbol id="nextpage" viewBox="0 0 31.49 31.49"><path d="M21.205 5.007a1.112 1.112 0 0 0-1.587 0 1.12 1.12 0 0 0 0 1.571l8.047 8.047H1.111A1.106 1.106 0 0 0 0 15.737c0 .619.492 1.127 1.111 1.127h26.554l-8.047 8.032c-.429.444-.429 1.159 0 1.587a1.112 1.112 0 0 0 1.587 0l9.952-9.952a1.093 1.093 0 0 0 0-1.571l-9.952-9.953z"/></symbol><symbol id="person" viewBox="0 0 297 297"><path d="M148.51 117.216c32.317 0 58.608-26.291 58.608-58.608S180.827 0 148.51 0c-32.317 0-58.608 26.291-58.608 58.608s26.291 58.608 58.608 58.608zM227.154 145.618c-.025-.008-.073-.026-.098-.032-7.631-1.864-30.999-5.133-30.999-5.133a5.194 5.194 0 0 0-6.406 3.188l-35.174 96.509c-2.029 5.567-9.903 5.567-11.932 0l-35.174-96.509a5.195 5.195 0 0 0-4.876-3.42c-.504 0-24.531 3.369-32.53 5.358-21.858 5.435-35.645 26.929-35.645 49.329v80.302c0 12.034 9.756 21.79 21.79 21.79h184.782c12.034 0 21.79-9.756 21.79-21.79v-80.569c-.001-22.303-14.328-42.096-35.528-49.023z"/><path d="M161.775 138.613c-1.404-1.53-3.456-2.299-5.532-2.299h-15.485c-2.076 0-4.129.77-5.532 2.299a7.183 7.183 0 0 0-.946 8.462l8.278 12.479-3.875 32.69 7.631 20.3c.744 2.042 3.631 2.042 4.375 0l7.631-20.3-3.875-32.69 8.278-12.479a7.186 7.186 0 0 0-.948-8.462z"/></symbol><symbol id="phone" viewBox="0 0 578.106 578.106"><path d="M577.83 456.128c1.225 9.385-1.635 17.545-8.568 24.48l-81.396 80.781c-3.672 4.08-8.465 7.551-14.381 10.404-5.916 2.857-11.729 4.693-17.439 5.508-.408 0-1.635.105-3.676.309-2.037.203-4.689.307-7.953.307-7.754 0-20.301-1.326-37.641-3.979s-38.555-9.182-63.645-19.584c-25.096-10.404-53.553-26.012-85.376-46.818-31.823-20.805-65.688-49.367-101.592-85.68-28.56-28.152-52.224-55.08-70.992-80.783-18.768-25.705-33.864-49.471-45.288-71.299-11.425-21.828-19.993-41.616-25.705-59.364S4.59 177.362 2.55 164.51-.306 141.56.102 134.216c.408-7.344.612-11.424.612-12.24.816-5.712 2.652-11.526 5.508-17.442s6.324-10.71 10.404-14.382L98.022 8.756c5.712-5.712 12.24-8.568 19.584-8.568 5.304 0 9.996 1.53 14.076 4.59s7.548 6.834 10.404 11.322l65.484 124.236c3.672 6.528 4.692 13.668 3.06 21.42-1.632 7.752-5.1 14.28-10.404 19.584l-29.988 29.988c-.816.816-1.53 2.142-2.142 3.978s-.918 3.366-.918 4.59c1.632 8.568 5.304 18.36 11.016 29.376 4.896 9.792 12.444 21.726 22.644 35.802s24.684 30.293 43.452 48.653c18.36 18.77 34.68 33.354 48.96 43.76 14.277 10.4 26.215 18.053 35.803 22.949 9.588 4.896 16.932 7.854 22.031 8.871l7.648 1.531c.816 0 2.145-.307 3.979-.918 1.836-.613 3.162-1.326 3.979-2.143l34.883-35.496c7.348-6.527 15.912-9.791 25.705-9.791 6.938 0 12.443 1.223 16.523 3.672h.611l118.115 69.768c8.571 5.308 13.67 12.038 15.303 20.198z"/></symbol><symbol id="plus" viewBox="0 0 31.444 31.444"><path d="M1.119 16.841a1.118 1.118 0 0 1-1.111-1.127c0-.619.492-1.111 1.111-1.111h13.475V1.127A1.133 1.133 0 0 1 15.722 0c.619 0 1.111.508 1.111 1.127v13.476h13.475c.619 0 1.127.492 1.127 1.111s-.508 1.127-1.127 1.127H16.833v13.476c0 .619-.492 1.127-1.111 1.127a1.131 1.131 0 0 1-1.127-1.127V16.841H1.119z"/></symbol><symbol id="ruble" viewBox="0 0 510.127 510.127"><path d="M34.786 428.963h81.158v69.572c0 3.385 1.083 6.156 3.262 8.322 2.173 2.18 4.951 3.27 8.335 3.27h60.502c3.14 0 5.857-1.09 8.152-3.27 2.295-2.166 3.439-4.938 3.439-8.322v-69.572h182.964c3.377 0 6.156-1.076 8.334-3.256 2.18-2.178 3.262-4.951 3.262-8.336v-46.377c0-3.365-1.082-6.156-3.262-8.322-2.172-2.18-4.957-3.27-8.334-3.27h-182.97v-42.754h123.184c48.305 0 87.73-14.719 118.293-44.199 30.551-29.449 45.834-67.49 45.834-114.125 0-46.604-15.283-84.646-45.834-114.125C410.548 14.749 371.116 0 322.812 0H127.535c-3.385 0-6.157 1.089-8.335 3.256-2.173 2.179-3.262 4.969-3.262 8.335v227.896H34.786c-3.384 0-6.157 1.145-8.335 3.439-2.172 2.295-3.262 5.012-3.262 8.151v53.978c0 3.385 1.083 6.158 3.262 8.336 2.179 2.18 4.945 3.256 8.335 3.256h81.158v42.754H34.786c-3.384 0-6.157 1.09-8.335 3.27-2.172 2.166-3.262 4.951-3.262 8.322v46.377c0 3.385 1.083 6.158 3.262 8.336 2.178 2.181 4.95 3.257 8.335 3.257zM199.628 77.179h115.938c25.6 0 46.248 7.485 61.953 22.46 15.697 14.976 23.549 34.547 23.549 58.691 0 24.156-7.852 43.733-23.549 58.691-15.705 14.988-36.354 22.473-61.953 22.473H199.628V77.179z"/></symbol><symbol id="search" viewBox="0 0 30.239 30.239"><path d="M20.194 3.46c-4.613-4.613-12.121-4.613-16.734 0-4.612 4.614-4.612 12.121 0 16.735 4.108 4.107 10.506 4.547 15.116 1.34.097.459.319.897.676 1.254l6.718 6.718a2.498 2.498 0 0 0 3.535 0 2.496 2.496 0 0 0 0-3.535l-6.718-6.72a2.5 2.5 0 0 0-1.253-.674c3.209-4.611 2.769-11.008-1.34-15.118zm-2.121 14.614c-3.444 3.444-9.049 3.444-12.492 0-3.442-3.444-3.442-9.048 0-12.492 3.443-3.443 9.048-3.443 12.492 0 3.444 3.444 3.444 9.048 0 12.492z"/></symbol><symbol viewBox="0 0 334.5 334.5" id="sent" xmlns="http://www.w3.org/2000/svg"><path d="M332.797 13.699a5.003 5.003 0 0 0-5.404-.776L2.893 163.695a5.001 5.001 0 0 0-.096 9.023l91.833 45.068a5 5 0 0 0 5.196-.484l89.287-66.734-70.094 72.1a5 5 0 0 0-1.4 3.868l6.979 90.889a5 5 0 0 0 8.771 2.884l48.742-56.482 60.255 28.79a5 5 0 0 0 6.926-3.014L334.27 18.956a5 5 0 0 0-1.473-5.257z"/></symbol><symbol id="twitter" viewBox="0 0 612 612"><path d="M612 116.258a250.714 250.714 0 0 1-72.088 19.772c25.929-15.527 45.777-40.155 55.184-69.411-24.322 14.379-51.169 24.82-79.775 30.48-22.907-24.437-55.49-39.658-91.63-39.658-69.334 0-125.551 56.217-125.551 125.513 0 9.828 1.109 19.427 3.251 28.606-104.326-5.24-196.835-55.223-258.75-131.174-10.823 18.51-16.98 40.078-16.98 63.101 0 43.559 22.181 81.993 55.835 104.479a125.556 125.556 0 0 1-56.867-15.756v1.568c0 60.806 43.291 111.554 100.693 123.104-10.517 2.83-21.607 4.398-33.08 4.398-8.107 0-15.947-.803-23.634-2.333 15.985 49.907 62.336 86.199 117.253 87.194-42.947 33.654-97.099 53.655-155.916 53.655-10.134 0-20.116-.612-29.944-1.721 55.567 35.681 121.536 56.485 192.438 56.485 230.948 0 357.188-191.291 357.188-357.188l-.421-16.253c24.666-17.593 46.005-39.697 62.794-64.861z"/></symbol><symbol id="vkontakte" viewBox="0 0 304.36 304.36"><path d="M261.945 175.576c10.096 9.857 20.752 19.131 29.807 29.982 4 4.822 7.787 9.798 10.684 15.394 4.105 7.955.387 16.709-6.746 17.184l-44.34-.02c-11.436.949-20.559-3.655-28.23-11.474-6.139-6.253-11.824-12.908-17.727-19.372-2.42-2.642-4.953-5.128-7.979-7.093-6.053-3.929-11.307-2.726-14.766 3.587-3.523 6.421-4.322 13.531-4.668 20.687-.475 10.441-3.631 13.186-14.119 13.664-22.414 1.057-43.686-2.334-63.447-13.641-17.422-9.968-30.932-24.04-42.691-39.971-22.895-31.021-40.428-65.108-56.186-100.15C-2.01 76.458.584 72.22 9.295 72.07c14.465-.281 28.928-.261 43.41-.02 5.879.086 9.771 3.458 12.041 9.012 7.826 19.243 17.402 37.551 29.422 54.521 3.201 4.518 6.465 9.036 11.113 12.216 5.142 3.521 9.057 2.354 11.476-3.374 1.535-3.632 2.207-7.544 2.553-11.434 1.146-13.383 1.297-26.743-.713-40.079-1.234-8.323-5.922-13.711-14.227-15.286-4.238-.803-3.607-2.38-1.555-4.799 3.564-4.172 6.916-6.769 13.598-6.769h50.111c7.889 1.557 9.641 5.101 10.721 13.039l.043 55.663c-.086 3.073 1.535 12.192 7.07 14.226 4.43 1.448 7.35-2.096 10.008-4.905 11.998-12.734 20.561-27.783 28.211-43.366 3.395-6.852 6.314-13.968 9.143-21.078 2.096-5.276 5.385-7.872 11.328-7.757l48.229.043c1.43 0 2.877.021 4.262.258 8.127 1.385 10.354 4.881 7.844 12.817-3.955 12.451-11.65 22.827-19.174 33.251-8.043 11.129-16.645 21.877-24.621 33.072-7.328 10.223-6.746 15.376 2.357 24.255zm0 0"/></symbol><symbol id="youtube" viewBox="0 0 310 310"><path d="M297.917 64.645c-11.19-13.302-31.85-18.728-71.306-18.728H83.386c-40.359 0-61.369 5.776-72.517 19.938C0 79.663 0 100.008 0 128.166v53.669c0 54.551 12.896 82.248 83.386 82.248h143.226c34.216 0 53.176-4.788 65.442-16.527C304.633 235.518 310 215.863 310 181.835v-53.669c0-29.695-.841-50.16-12.083-63.521zm-98.896 97.765l-65.038 33.991a9.997 9.997 0 0 1-14.632-8.863v-67.764a10 10 0 0 1 14.609-8.874l65.038 33.772a10 10 0 0 1 .023 17.738z"/></symbol></svg>