<svg version="1" xmlns="http://www.w3.org/2000/svg" width="320" height="320" viewBox="0 0 240 240"><path d="M104.5 37.7C88.9 41 76 49.4 61.9 65.4 57 71 49.2 79 44.5 83.4c-4.7 4.3-8.4 8.1-8.1 8.3.3.3 4.4.5 9.1.5 4.7 0 8.5.2 8.5.5 0 .2-2.3 3.8-5.1 8-6.7 9.8-10.6 18.4-12.4 26.9-1.5 6.9-1.9 11.4-1.1 11.4.3 0 2.7-2.4 5.5-5.3 4.3-4.5 12.9-10.3 13.9-9.3.1.2-.4 3.4-1.3 7-2.2 9.6-2 25.4.5 35.2 3.9 15.4 12.7 29 23 35.3 2.8 1.7 5.2 3.1 5.4 3.1.1 0-.1-2.1-.5-4.8-.9-5.7-1-26.8 0-30.1.6-2.3.7-2.2 3.5 1.8 3.7 5.3 13.6 14.6 21.8 20.4 6.1 4.3 21.7 13.2 21.9 12.5.1-.1.3-8.2.4-17.8.5-27.4 4.2-41.5 14.8-55.7 5.4-7.2 13-13.6 20.7-17.2 5.3-2.5 6.3-2.6 26.9-2.9l21.4-.3 4.7 4.6 4.7 4.6.7-3.2c1-5 .7-17.3-.5-23-1.9-8.7-11.6-17.5-22-19.8-3.7-.8-6-2.4-11.6-8-8.4-8.2-22.3-16.7-37.3-22.7-17.9-7.2-32.3-9-47.5-5.7zM151.6 71c6 1.2 11.9 2.4 13.2 2.6 3 .6 2.8 2.7-.5 6.4-5.5 6.1-17.3 4.9-22.6-2.3-1.2-1.6-4.4-5.2-7.2-7.9l-5-4.8 5.6 1.9c3.1 1 10.5 2.9 16.5 4.1z"/></svg>