<?xml version="1.0" standalone="no"?>
<!DOCTYPE svg PUBLIC "-//W3C//DTD SVG 20010904//EN"
 "http://www.w3.org/TR/2001/REC-SVG-20010904/DTD/svg10.dtd">
<svg version="1.0" xmlns="http://www.w3.org/2000/svg"
 width="240.000000pt" height="240.000000pt" viewBox="0 0 240.000000 240.000000"
 preserveAspectRatio="xMidYMid meet">
<metadata>
Created by potrace 1.11, written by Peter Selinger 2001-2013
</metadata>
<g transform="translate(0.000000,240.000000) scale(0.100000,-0.100000)"
fill="#000000" stroke="none">
<path d="M1045 2023 c-156 -33 -285 -117 -426 -277 -49 -56 -127 -136 -174
-180 -47 -43 -84 -81 -81 -83 3 -3 44 -5 91 -5 47 0 85 -2 85 -5 0 -2 -23 -38
-51 -80 -67 -98 -106 -184 -124 -269 -15 -69 -19 -114 -11 -114 3 0 27 24 55
53 43 45 129 103 139 93 1 -2 -4 -34 -13 -70 -22 -96 -20 -254 5 -352 39 -154
127 -290 230 -353 28 -17 52 -31 54 -31 1 0 -1 21 -5 48 -9 57 -10 268 0 301
6 23 7 22 35 -18 37 -53 136 -146 218 -204 61 -43 217 -132 219 -125 1 1 3 82
4 178 5 274 42 415 148 557 54 72 130 136 207 172 53 25 63 26 269 29 l214 3
47 -46 47 -46 7 32 c10 50 7 173 -5 230 -19 87 -116 175 -220 198 -37 8 -60
24 -116 80 -84 82 -223 167 -373 227 -179 72 -323 90 -475 57z m471 -333 c60
-12 119 -24 132 -26 30 -6 28 -27 -5 -64 -55 -61 -173 -49 -226 23 -12 16 -44
52 -72 79 l-50 48 56 -19 c31 -10 105 -29 165 -41z"/>
</g>
</svg>
